<svg height="55.8mm" viewBox="0 0 1200.6 158.2" width="423.5mm" xmlns="http://www.w3.org/2000/svg"><path d="M828.7 110.2h-7.3a4.3 4.3 0 00-4.1 3.6l-.9 6.7a3.2 3.2 0 003.2 3.6h7.2a4.2 4.2 0 004.1-3.6l.9-6.7a3 3 0 00-3.1-3.6m-699.3 29.5l.2-.2.3-.2a3.4 3.4 0 00.6-.6 79 79 0 0025.9-44.6v-.3a3.4 3.4 0 00.1-1 5.7 5.7 0 00-5.8-5.7h-7.1a5.9 5.9 0 00-5.7 4.5v.3a59.7 59.7 0 01-18.6 32l-.5.4a5.8 5.8 0 00-1.1 6.9v.2l3.6 6.2a5.9 5.9 0 007.9 2.1m-76.7-.3l-3.5 6.1a5.7 5.7 0 00-.6 4.4 5.6 5.6 0 002.7 3.5l.9.4h.3a80.6 80.6 0 0051.8.1l.9-.4h.5a5.7 5.7 0 002.2-7.7l-.2-.4-3.5-6a5.8 5.8 0 00-6.6-2.6l-.4.2h-.2a60.9 60.9 0 01-37.3 0h-.2a5.9 5.9 0 00-6.8 2.6m53-134.8h-.5l-.9-.3a80.6 80.6 0 00-51.8 0H52l-.9.4a5.6 5.6 0 00-2.7 3.5 5.6 5.6 0 00.6 4.4l3.5 6.1a5.9 5.9 0 006.8 2.6h.2a62.9 62.9 0 0118.7-2.9 59.7 59.7 0 0118.6 2.9h.6a5.7 5.7 0 006.5-2.5l.2-.2 3.6-6.2a5.8 5.8 0 00-2.2-7.8M37.2 34.3l.5-.4a5.8 5.8 0 001.1-6.9l-.2-.4-3.5-6a5.8 5.8 0 00-5-2.8 5.9 5.9 0 00-2.9.7c-.1.1-.1.2-.2.2l-.3.2a3.4 3.4 0 00-.6.6A79 79 0 00.2 64.1v.3a3.4 3.4 0 00-.1 1 5.8 5.8 0 005.8 5.8H13a5.9 5.9 0 005.7-4.6v-.2a60.4 60.4 0 0118.5-32.1m1.5 97.1a5.9 5.9 0 00-1-7.1l-.4-.3h-.1a59.6 59.6 0 01-18.6-32.2v-.2a5.9 5.9 0 00-5.7-4.5H5.8A5.7 5.7 0 000 92.8c0 .3.1.7.1 1v.3A79.4 79.4 0 0026 138.7l.8.6.2.2.2.2a5.9 5.9 0 007.9-2v-.2z" fill="#fff"/><path d="M150.4 9.8a6.9 6.9 0 00-9.4-2.5 6.7 6.7 0 00-2.5 2.5h-.1l-24.3 41.9a7.5 7.5 0 00-.9 3.4 6.8 6.8 0 006.9 6.8h48.6a7.3 7.3 0 003.5-.9 6.8 6.8 0 002.5-9.3z" fill="#e2001a"/><path d="M881.8 56.1h-13c-11.7 0-22.5 9.5-24 21.3l-.2 1.3-5.5 41.9a3 3 0 003.1 3.5h7.2a4.1 4.1 0 004-3.6l5.7-43.1a10.5 10.5 0 01.5-1.9 10.7 10.7 0 019.9-7.3h10.7a4.2 4.2 0 004.1-3.6l.7-4.9a3.2 3.2 0 00-3.2-3.6m-244.1 4.2l-.3-.2a19 19 0 00-11.9-4h-12.9c-11.8 0-22.7 9.5-24.2 21.3h-.1l-3.3 25.4c-1.6 11.8 6.8 21.3 18.6 21.3h12.9a24 24 0 0013-4l.3-.2a4.4 4.4 0 001.9-2.9l.4-3.2a3.1 3.1 0 00-3.2-3.6h-5a11.6 11.6 0 00-3.7.7l-.8.4a10.5 10.5 0 01-3.6.7h-8.3a7.9 7.9 0 01-8-9.2l3.3-25.4a10.9 10.9 0 0110.5-9.2h8.3a9.9 9.9 0 013.5.7l.7.4a8.9 8.9 0 003.4.7h5.1a4.3 4.3 0 004.1-3.6l.4-3.3a3.3 3.3 0 00-1.1-2.8m-337 51.5a7.9 7.9 0 01-6.3-9l8.7-65.5a3.2 3.2 0 00-3.2-3.6h-7.2a4.3 4.3 0 00-4.1 3.6l-8.7 65.5c-1.5 11.8 6.8 21.3 18.6 21.3a4.2 4.2 0 004.1-3.6l.7-5.1a3.2 3.2 0 00-2.6-3.6M792 98.1c11.8 0 22.6-9 24.1-20.7s-6.7-21.3-18.6-21.3h-12.9c-11.8 0-22.7 9.5-24.3 21.3l-3.3 25.4c-1.6 11.8 6.7 21.3 18.6 21.3h16.9a23.7 23.7 0 0012.9-4 3.8 3.8 0 002.2-3.1l.5-3.2a3.2 3.2 0 00-3.2-3.6h-5.1a11.5 11.5 0 00-3.6.7l-.8.4a10.5 10.5 0 01-3.6.7h-12.3a8 8 0 01-8.1-9.2l.7-4.7zm-17.2-20.7a10.9 10.9 0 0110.5-9.2h8.3a8 8 0 018.1 9.2 10.3 10.3 0 01-10.4 8.6h-17.6zm-71.6 0c1.6-11.8-6.8-21.3-18.6-21.3h-12.9c-11.9 0-22.7 9.5-24.3 21.3l-3.4 25.4c-1.5 11.8 6.8 21.3 18.6 21.3h13c11.8 0 22.7-9.5 24.2-21.3zM674.9 112h-8.4a7.9 7.9 0 01-8-9.2l3.4-25.4a10.7 10.7 0 0110.4-9.2h8.4a7.9 7.9 0 018 9.2l-3.3 25.4a10.9 10.9 0 01-10.5 9.2m78-55.9h-13c-11.8 0-22.6 9.5-24.1 21.2l-.2 1.4-5.5 41.9a3 3 0 003.1 3.5h7.2a4.3 4.3 0 004.1-3.6l5.6-43.1a10.5 10.5 0 01.5-1.9 10.7 10.7 0 019.9-7.3h10.8a4.2 4.2 0 004-3.6l.7-4.9a3 3 0 00-3.1-3.6M509.6 77.4c1.5-11.8-6.8-21.3-18.7-21.3H478a24.5 24.5 0 00-7.1 1.1l2.6-19.9a3 3 0 00-3.1-3.6h-7.3a4.3 4.3 0 00-4.1 3.6l-10.9 83.2a3.2 3.2 0 003.2 3.6h7.2a4.3 4.3 0 004.1-3.6l5.7-43.1a10.7 10.7 0 0110.4-9.2h8.4a7.9 7.9 0 018 9.2l-5.6 43h-.1a3.2 3.2 0 003.2 3.6h7.2a4.2 4.2 0 004.1-3.6zm-69.1-17.3a19 19 0 00-11.9-4h-18.1c-11.2 0-21.4 8.9-22.8 20s6.3 20 17.5 20h13.2a6.9 6.9 0 016.9 8 9.4 9.4 0 01-9 7.9h-15.6a8.9 8.9 0 01-3.4-.7l-.7-.4a9.4 9.4 0 00-3.4-.7h-5.1a4.2 4.2 0 00-4.1 3.6l-.5 3.2a3.1 3.1 0 001.4 3.1 19.2 19.2 0 0011.9 4H417c11.1 0 21.3-9 22.8-20S433.4 84 422.3 84H409a6.8 6.8 0 01-6.9-7.9 9.4 9.4 0 019.1-7.9h13.5a8.9 8.9 0 013.4.7l.8.4a8.9 8.9 0 003.4.7h5.1a4.3 4.3 0 004.1-3.6l.4-3.3a2.9 2.9 0 00-1.4-3M273.9 33.7h-44.7a4.2 4.2 0 00-4.1 3.6l-11 83.3a3 3 0 003.1 3.5h7.2a4.3 4.3 0 004.1-3.6l4.6-35.4h30a4.3 4.3 0 004.1-3.6l.7-5.2a3.1 3.1 0 00-3.1-3.6h-30l3.5-26.9h34a4.3 4.3 0 004.1-3.6l.6-4.9a3 3 0 00-3.1-3.6m301.9 58.9c1.4-10.9-6.4-19.8-17.5-19.8h-13.2a6.7 6.7 0 01-6.9-7.7l1.5-11.4a9.3 9.3 0 019-7.9h15.6a9.8 9.8 0 013.4.7l.7.4a8.9 8.9 0 003.4.7h5.1A4.3 4.3 0 00581 44l.4-3.2a3 3 0 00-1.4-3.1 18.8 18.8 0 00-11.9-4H548c-11.1 0-21.3 9-22.8 20 0 .1-1.5 11.4-1.5 11.5-1.3 10.9 6.5 19.8 17.5 19.8h13.2a6.8 6.8 0 017 7.6c0 .1-1.5 11.4-1.5 11.5a9.5 9.5 0 01-9.1 7.9h-17.5a8.9 8.9 0 01-3.4-.7l-.8-.4a8.9 8.9 0 00-3.4-.7h-5.1a4.3 4.3 0 00-4.1 3.6l-.4 3.2a3 3 0 001.4 3.1 19 19 0 0011.9 4h22.1c11.2 0 21.4-9 22.8-20 0-.1 1.5-11.4 1.5-11.5M374.6 77.4c1.5-11.8-6.8-21.3-18.6-21.3h-17a24.4 24.4 0 00-12.9 3.9 4.7 4.7 0 00-2.2 3.1l-.4 3.3a3 3 0 003.1 3.6h5.1a8.6 8.6 0 003.6-.8l.8-.3a11.5 11.5 0 013.6-.7h12.4a7.9 7.9 0 018 9.2l-.6 4.6h-19.9c-11.8 0-22.6 9-24.2 20.8s6.8 21.3 18.6 21.3h13a23.6 23.6 0 0012.4-3.6 3 3 0 003.1 3.6h2.3a4.3 4.3 0 004.1-3.6zm-17.9 25.4a10.7 10.7 0 01-10.4 9.2h-8.4a7.9 7.9 0 01-8-9.2 10.4 10.4 0 0110.4-8.7h17.6zm592-43.1a3 3 0 00-3.1-3.6h-7.2a4.3 4.3 0 00-4.1 3.6l-5.7 43.1a10.7 10.7 0 01-10.3 9.2H910a7.9 7.9 0 01-8-9.2l5.7-43.1a3.1 3.1 0 00-3.1-3.6h-7.2a4.3 4.3 0 00-4.1 3.6l-5.7 43.1c-1.5 11.8 6.7 21.3 18.5 21.3h12.8c11.8 0 22.6-9.5 24.1-21.3zM1026 61l-.3-.2a19 19 0 00-11.9-4h-12.9c-11.8 0-22.7 9.5-24.3 21.3l-3.3 25.4c-1.6 11.8 6.7 21.3 18.6 21.3h12.9a24.2 24.2 0 0013-4l.3-.2a4 4 0 001.8-2.9l.5-3.2a3.2 3.2 0 00-3.2-3.6h-5.1a11.5 11.5 0 00-3.6.7l-.8.4a10.5 10.5 0 01-3.6.7h-8.3a8 8 0 01-8.1-9.2l3.4-25.4a10.9 10.9 0 0110.5-9.2h8.3a8.9 8.9 0 013.4.7l.8.4a8.9 8.9 0 003.4.7h5.1a4.3 4.3 0 004.1-3.6l.4-3.3a3.3 3.3 0 00-1.1-2.8m65.5 17.1c1.6-11.8-6.8-21.3-18.6-21.3h-13c-11.8 0-22.6 9.5-24.2 21.3l-3.4 25.4c-1.5 11.8 6.8 21.3 18.6 21.3h13c11.8 0 22.7-9.5 24.2-21.3zm-28.3 34.6h-8.4a7.9 7.9 0 01-8-9.2l3.4-25.4a10.7 10.7 0 0110.4-9.2h8.4a7.9 7.9 0 018 9.2l-3.3 25.4a10.9 10.9 0 01-10.5 9.2m118.7-55.9h-12.8a24.1 24.1 0 00-14.8 5.3 18.7 18.7 0 00-13.4-5.3H1128c-11.7 0-22.5 9.5-24 21.3l-5.7 43.1a3 3 0 003.1 3.6h7.2a4.1 4.1 0 004-3.6l5.7-43.1a10.9 10.9 0 0110.4-9.2h8.3a7.8 7.8 0 018 9v.2l-5.7 43.1a3 3 0 003.1 3.6h7.2a4.3 4.3 0 004.1-3.6l5.7-43.1v-.2a10.7 10.7 0 0110.3-9h8.3a7.9 7.9 0 018 9.2l-5.7 43.1a3.1 3.1 0 003.1 3.6h7.2a4.3 4.3 0 004.1-3.6l5.7-43.1c1.5-11.8-6.7-21.3-18.5-21.3m-221.2 54.1h-7.3a4.3 4.3 0 00-4.1 3.6l-.9 6.7a3.2 3.2 0 003.2 3.6h7.2a4.3 4.3 0 004.1-3.6l.9-6.7a3.1 3.1 0 00-3.1-3.6" fill="#fff"/></svg>